# xmcd
#
# Track frame offsets:
#	150
#	46680
#	77813
#	120135
#	150400
#	217278
#	244902
#	265232
#	293648
#	318609
#
# Disc length: 4736 seconds
#
# Revision: 1
# Processed by: cddbd v1.5.2PL0 Copyright (c) Steve Scherf et al.
# Submitted via: audiograbber 1.83.01
#
DISCID=85127e0a
DTITLE=Grateful Dead - 76-07-13 Orpheum Theatre, San Francisco CA
DYEAR=1900
DGENRE=
TTITLE0=Mississippi Half-Step
TTITLE1=Big River
TTITLE2=Peggy-O
TTITLE3=Cassidy
TTITLE4=Crazy Fingers
TTITLE5=Let It Grow
TTITLE6=Drums
TTITLE7=Let It Grow
TTITLE8=Might As Well
TTITLE9=The Music Never Stopped
EXTD=
EXTT0=
EXTT1=
EXTT2=
EXTT3=
EXTT4=
EXTT5=
EXTT6=
EXTT7=
EXTT8=
EXTT9=
PLAYORDER=
